<svg xmlns="http://www.w3.org/2000/svg" xmlns:xlink="http://www.w3.org/1999/xlink" width="1602" zoomAndPan="magnify" viewBox="0 0 1201.5 292.499991" height="390" preserveAspectRatio="xMidYMid meet" version="1.0"><defs><g/><clipPath id="c876524e78"><path d="M 0.777344 2 L 1158 2 L 1158 260 L 0.777344 260 Z M 0.777344 2 " clip-rule="nonzero"/></clipPath><clipPath id="09b0d7cef3"><path d="M 0.777344 0.875 L 327.449219 0.875 L 327.449219 109.085938 L 0.777344 109.085938 Z M 0.777344 0.875 " clip-rule="nonzero"/></clipPath><clipPath id="fc40b832bd"><path d="M 252 140 L 549 140 L 549 257.238281 L 252 257.238281 Z M 252 140 " clip-rule="nonzero"/></clipPath><clipPath id="9b06ffca1e"><rect x="0" width="297" y="0" height="118"/></clipPath><clipPath id="00fe40c145"><path d="M 561 140 L 1157.996094 140 L 1157.996094 257.238281 L 561 257.238281 Z M 561 140 " clip-rule="nonzero"/></clipPath><clipPath id="a2a12a0057"><rect x="0" width="597" y="0" height="118"/></clipPath><clipPath id="bf1ec8fbc6"><rect x="0" width="1158" y="0" height="258"/></clipPath></defs><g clip-path="url(#c876524e78)"><g transform="matrix(1, 0, 0, 1, 0.000000000000000111, 2)"><g clip-path="url(#bf1ec8fbc6)"><g clip-path="url(#09b0d7cef3)"><path fill="#0f6fdc" d="M 64.175781 64.570312 L 0.878906 64.570312 L 1.675781 77.835938 L 20.027344 77.835938 C 38.113281 77.835938 49.8125 92.679688 55.128906 109.121094 L 69.5 109.121094 L 82 77.835938 L 246.359375 77.835938 L 258.859375 109.121094 L 273.484375 109.121094 C 278 94.003906 290.234375 77.835938 306.996094 77.835938 L 326.933594 77.835938 L 327.46875 64.570312 L 86.25 64.570312 C 99.550781 33.8125 129.871094 13.136719 164.175781 13.136719 C 195.289062 13.136719 223.210938 30.105469 238.109375 56.359375 L 253.269531 56.359375 C 238.375 25.328125 207.523438 3.601562 171.886719 1.203125 C 128.539062 -1.976562 88.375 24.003906 72.953125 64.574219 L 65.503906 83.667969 L 62.050781 92.152344 C 59.925781 88.4375 57.253906 84.992188 54.601562 82.078125 C 53.273438 80.488281 51.941406 79.160156 50.613281 77.835938 L 58.851562 77.835938 Z M 266.296875 92.152344 L 260.449219 77.835938 L 278 77.835938 C 276.410156 79.160156 275.074219 80.488281 273.746094 82.078125 C 271.085938 84.992188 268.433594 88.4375 266.296875 92.152344 Z M 266.296875 92.152344 " fill-opacity="1" fill-rule="evenodd"/></g><path fill="#0f6fdc" d="M 100.09375 66.128906 C 94.421875 70.503906 94.621094 68.015625 94.621094 153.9375 C 94.621094 240.054688 94.523438 237.867188 100.191406 241.644531 C 102.777344 243.335938 106.855469 243.4375 163.734375 243.734375 C 217.734375 243.933594 224.894531 243.835938 228.671875 242.34375 C 235.535156 239.757812 235.832031 238.464844 235.832031 212.410156 L 235.832031 189.738281 L 229.371094 201.171875 L 222.90625 212.609375 L 222.90625 231.003906 L 107.550781 231.003906 L 107.550781 76.867188 L 222.90625 76.867188 L 222.90625 111.175781 C 222.90625 130.070312 223.203125 145.484375 223.699219 145.484375 C 224.097656 145.484375 226.984375 140.808594 230.066406 135.140625 L 235.832031 124.699219 L 235.832031 98.746094 C 235.832031 77.664062 235.535156 72.292969 234.339844 69.90625 C 231.058594 63.640625 234.539062 63.941406 165.625 63.941406 L 102.875 63.941406 Z M 100.09375 66.128906 " fill-opacity="1" fill-rule="nonzero"/><path fill="#0f6fdc" d="M 118.488281 101.230469 L 118.488281 105.707031 L 190.089844 105.707031 L 190.089844 96.757812 L 118.488281 96.757812 Z M 118.488281 101.230469 " fill-opacity="1" fill-rule="nonzero"/><path fill="#0f6fdc" d="M 253.433594 114.058594 L 250.847656 118.632812 L 257.3125 122.214844 C 260.894531 124.203125 263.875 125.695312 264.074219 125.496094 C 265.46875 123.605469 268.75 117.441406 268.550781 117.242188 C 268.351562 117.140625 266.363281 115.949219 264.175781 114.65625 C 261.988281 113.363281 259.203125 111.671875 258.109375 110.976562 C 256.121094 109.683594 255.820312 109.882812 253.433594 114.058594 Z M 253.433594 114.058594 " fill-opacity="1" fill-rule="nonzero"/><path fill="#0f6fdc" d="M 118.488281 123.109375 L 118.488281 127.582031 L 211.964844 127.582031 L 211.964844 118.632812 L 118.488281 118.632812 Z M 118.488281 123.109375 " fill-opacity="1" fill-rule="nonzero"/><path fill="#0f6fdc" d="M 224.097656 163.285156 L 201.027344 203.0625 L 201.027344 210.023438 C 201.027344 213.902344 201.324219 217.082031 201.722656 217.082031 C 202.023438 217.082031 205.105469 215.492188 208.484375 213.503906 L 214.550781 209.921875 L 237.226562 170.742188 C 249.65625 149.261719 259.601562 131.164062 259.300781 130.667969 C 258.804688 129.871094 248.363281 123.605469 247.46875 123.605469 C 247.367188 123.605469 236.828125 141.507812 224.097656 163.285156 Z M 224.097656 163.285156 " fill-opacity="1" fill-rule="nonzero"/><path fill="#0f6fdc" d="M 118.886719 139.914062 C 118.589844 140.710938 118.488281 142.800781 118.6875 144.6875 L 118.984375 147.96875 L 154.585938 148.269531 L 190.089844 148.46875 L 190.089844 138.523438 L 154.785156 138.523438 C 125.351562 138.523438 119.285156 138.722656 118.886719 139.914062 Z M 118.886719 139.914062 " fill-opacity="1" fill-rule="nonzero"/><path fill="#0f6fdc" d="M 118.488281 165.871094 L 118.488281 170.34375 L 211.964844 170.34375 L 211.964844 161.394531 L 118.488281 161.394531 Z M 118.488281 165.871094 " fill-opacity="1" fill-rule="nonzero"/><path fill="#0f6fdc" d="M 118.488281 185.757812 L 118.488281 190.234375 L 190.089844 190.234375 L 190.089844 181.285156 L 118.488281 181.285156 Z M 118.488281 185.757812 " fill-opacity="1" fill-rule="nonzero"/><g clip-path="url(#fc40b832bd)"><g transform="matrix(1, 0, 0, 1, 252, 140)"><g clip-path="url(#9b06ffca1e)"><g fill="#0f6fdc" fill-opacity="1"><g transform="translate(2.418143, 90.254037)"><g><path d="M 54.78125 -43.28125 C 54.78125 -39.675781 53.847656 -36.398438 51.984375 -33.453125 C 50.128906 -30.503906 47.726562 -28.265625 44.78125 -26.734375 L 57.34375 0 L 40.4375 0 L 28.765625 -24.6875 L 22.484375 -24.6875 L 22.484375 0 L 6.1875 0 L 6.1875 -61.953125 L 36.375 -61.953125 C 39.789062 -61.953125 42.882812 -61.109375 45.65625 -59.421875 C 48.4375 -57.742188 50.648438 -55.503906 52.296875 -52.703125 C 53.953125 -49.898438 54.78125 -46.757812 54.78125 -43.28125 Z M 30.625 -53.984375 L 22.484375 -53.984375 L 22.484375 -32.65625 L 30.625 -32.65625 C 32.332031 -32.65625 33.773438 -33.703125 34.953125 -35.796875 C 36.140625 -37.890625 36.734375 -40.382812 36.734375 -43.28125 C 36.734375 -46.226562 36.140625 -48.75 34.953125 -50.84375 C 33.773438 -52.9375 32.332031 -53.984375 30.625 -53.984375 Z M 30.625 -53.984375 "/></g></g></g><g fill="#0f6fdc" fill-opacity="1"><g transform="translate(61.971689, 90.254037)"><g><path d="M 22.5625 -27 L 22.5625 -7.96875 L 49.390625 -7.96875 L 49.390625 0 L 6.1875 0 L 6.1875 -61.953125 L 47.609375 -61.953125 L 47.609375 -53.984375 L 22.5625 -53.984375 L 22.5625 -34.953125 L 36.109375 -34.953125 L 36.109375 -27 Z M 22.5625 -27 "/></g></g></g><g fill="#0f6fdc" fill-opacity="1"><g transform="translate(114.446071, 90.254037)"><g><path d="M 2.21875 0 L 23.890625 -61.953125 L 36.546875 -61.953125 L 58.234375 0 L 40.890625 0 L 35.578125 -16.109375 L 16.90625 -16.109375 L 11.5 0 Z M 26.203125 -44.34375 L 19.5625 -24.078125 L 32.921875 -24.078125 Z M 26.203125 -44.34375 "/></g></g></g><g fill="#0f6fdc" fill-opacity="1"><g transform="translate(174.884517, 90.254037)"><g><path d="M 39.640625 -7.25 C 45.304688 -7.25 49.941406 -10.054688 53.546875 -15.671875 L 60.1875 -11.0625 C 58 -7.113281 54.835938 -4.03125 50.703125 -1.8125 C 46.578125 0.394531 41.945312 1.5 36.8125 1.5 C 32.332031 1.5 28.128906 0.660156 24.203125 -1.015625 C 20.273438 -2.703125 16.835938 -5.035156 13.890625 -8.015625 C 10.941406 -10.992188 8.625 -14.457031 6.9375 -18.40625 C 5.257812 -22.363281 4.421875 -26.582031 4.421875 -31.0625 C 4.421875 -35.601562 5.257812 -39.820312 6.9375 -43.71875 C 8.625 -47.613281 10.957031 -51.050781 13.9375 -54.03125 C 16.914062 -57.007812 20.394531 -59.320312 24.375 -60.96875 C 28.363281 -62.625 32.628906 -63.453125 37.171875 -63.453125 C 40.117188 -63.453125 43.007812 -63.097656 45.84375 -62.390625 C 48.675781 -61.679688 51.269531 -60.707031 53.625 -59.46875 C 55.988281 -58.226562 57.910156 -56.785156 59.390625 -55.140625 L 53.28125 -48.40625 C 49.445312 -52.59375 44.960938 -54.6875 39.828125 -54.6875 C 36.347656 -54.6875 33.296875 -53.710938 30.671875 -51.765625 C 28.046875 -49.828125 26.023438 -47.101562 24.609375 -43.59375 C 23.191406 -40.082031 22.484375 -35.9375 22.484375 -31.15625 C 22.484375 -26.375 23.203125 -22.179688 24.640625 -18.578125 C 26.085938 -14.984375 28.109375 -12.195312 30.703125 -10.21875 C 33.304688 -8.238281 36.285156 -7.25 39.640625 -7.25 Z M 39.640625 -7.25 "/></g></g></g><g fill="#0f6fdc" fill-opacity="1"><g transform="translate(238.154608, 90.254037)"><g><path d="M 2.21875 -53.984375 L 2.21875 -61.953125 L 55.40625 -61.953125 L 55.40625 -53.984375 L 37 -53.984375 L 37 0 L 20.625 0 L 20.625 -53.984375 Z M 2.21875 -53.984375 "/></g></g></g></g></g></g><g clip-path="url(#00fe40c145)"><g transform="matrix(1, 0, 0, 1, 561, 140)"><g clip-path="url(#a2a12a0057)"><g fill="#0f6fdc" fill-opacity="1"><g transform="translate(2.80721, 90.254037)"><g><path d="M 6.1875 0 L 6.1875 -61.953125 L 47.4375 -61.953125 L 47.4375 -53.984375 L 22.5625 -53.984375 L 22.5625 -32.65625 L 37.96875 -32.65625 L 37.96875 -24.6875 L 22.5625 -24.6875 L 22.5625 0 Z M 6.1875 0 "/></g></g></g><g fill="#0f6fdc" fill-opacity="1"><g transform="translate(53.334803, 90.254037)"><g><path d="M 36.375 -63.453125 C 40.800781 -63.453125 44.929688 -62.609375 48.765625 -60.921875 C 52.597656 -59.242188 55.988281 -56.914062 58.9375 -53.9375 C 61.882812 -50.957031 64.1875 -47.503906 65.84375 -43.578125 C 67.5 -39.660156 68.328125 -35.457031 68.328125 -30.96875 C 68.328125 -26.488281 67.5 -22.285156 65.84375 -18.359375 C 64.1875 -14.441406 61.882812 -10.992188 58.9375 -8.015625 C 55.988281 -5.035156 52.597656 -2.703125 48.765625 -1.015625 C 44.929688 0.660156 40.800781 1.5 36.375 1.5 C 31.945312 1.5 27.816406 0.660156 23.984375 -1.015625 C 20.148438 -2.703125 16.753906 -5.035156 13.796875 -8.015625 C 10.847656 -10.992188 8.546875 -14.441406 6.890625 -18.359375 C 5.242188 -22.285156 4.421875 -26.488281 4.421875 -30.96875 C 4.421875 -35.457031 5.242188 -39.660156 6.890625 -43.578125 C 8.546875 -47.503906 10.847656 -50.957031 13.796875 -53.9375 C 16.753906 -56.914062 20.148438 -59.242188 23.984375 -60.921875 C 27.816406 -62.609375 31.945312 -63.453125 36.375 -63.453125 Z M 36.375 -7.25 C 38.96875 -7.25 41.3125 -8.3125 43.40625 -10.4375 C 45.5 -12.5625 47.164062 -15.421875 48.40625 -19.015625 C 49.644531 -22.617188 50.265625 -26.601562 50.265625 -30.96875 C 50.265625 -35.34375 49.644531 -39.328125 48.40625 -42.921875 C 47.164062 -46.523438 45.5 -49.382812 43.40625 -51.5 C 41.3125 -53.625 38.96875 -54.6875 36.375 -54.6875 C 33.832031 -54.6875 31.515625 -53.625 29.421875 -51.5 C 27.328125 -49.382812 25.644531 -46.523438 24.375 -42.921875 C 23.113281 -39.328125 22.484375 -35.34375 22.484375 -30.96875 C 22.484375 -26.601562 23.113281 -22.617188 24.375 -19.015625 C 25.644531 -15.421875 27.328125 -12.5625 29.421875 -10.4375 C 31.515625 -8.3125 33.832031 -7.25 36.375 -7.25 Z M 36.375 -7.25 "/></g></g></g><g fill="#0f6fdc" fill-opacity="1"><g transform="translate(126.073298, 90.254037)"><g><path d="M 54.78125 -43.28125 C 54.78125 -39.675781 53.847656 -36.398438 51.984375 -33.453125 C 50.128906 -30.503906 47.726562 -28.265625 44.78125 -26.734375 L 57.34375 0 L 40.4375 0 L 28.765625 -24.6875 L 22.484375 -24.6875 L 22.484375 0 L 6.1875 0 L 6.1875 -61.953125 L 36.375 -61.953125 C 39.789062 -61.953125 42.882812 -61.109375 45.65625 -59.421875 C 48.4375 -57.742188 50.648438 -55.503906 52.296875 -52.703125 C 53.953125 -49.898438 54.78125 -46.757812 54.78125 -43.28125 Z M 30.625 -53.984375 L 22.484375 -53.984375 L 22.484375 -32.65625 L 30.625 -32.65625 C 32.332031 -32.65625 33.773438 -33.703125 34.953125 -35.796875 C 36.140625 -37.890625 36.734375 -40.382812 36.734375 -43.28125 C 36.734375 -46.226562 36.140625 -48.75 34.953125 -50.84375 C 33.773438 -52.9375 32.332031 -53.984375 30.625 -53.984375 Z M 30.625 -53.984375 "/></g></g></g><g fill="#0f6fdc" fill-opacity="1"><g transform="translate(185.626843, 90.254037)"><g><path d="M 37.875 -20.53125 L 52.5625 -61.953125 L 68.9375 -61.953125 L 68.9375 0 L 52.5625 0 L 52.5625 -38.9375 L 40.171875 0 L 27.265625 0 L 14.875 -38.9375 L 14.875 0 L 6.1875 0 L 6.1875 -61.953125 L 23.1875 -61.953125 Z M 37.875 -20.53125 "/></g></g></g><g fill="#0f6fdc" fill-opacity="1"><g transform="translate(260.754579, 90.254037)"><g><path d="M 48.0625 -34.15625 C 50.0625 -33.269531 51.828125 -31.972656 53.359375 -30.265625 C 54.898438 -28.554688 56.125 -26.609375 57.03125 -24.421875 C 57.945312 -22.242188 58.40625 -19.972656 58.40625 -17.609375 C 58.40625 -14.484375 57.59375 -11.578125 55.96875 -8.890625 C 54.351562 -6.210938 52.1875 -4.0625 49.46875 -2.4375 C 46.757812 -0.8125 43.75 0 40.4375 0 L 6.1875 0 L 6.1875 -61.953125 L 37.171875 -61.953125 C 40.179688 -61.953125 42.925781 -61.210938 45.40625 -59.734375 C 47.882812 -58.265625 49.859375 -56.332031 51.328125 -53.9375 C 52.804688 -51.550781 53.546875 -48.941406 53.546875 -46.109375 C 53.546875 -43.742188 53.023438 -41.5 51.984375 -39.375 C 50.953125 -37.257812 49.644531 -35.519531 48.0625 -34.15625 Z M 22.5625 -7.96875 L 34.6875 -7.96875 C 36.28125 -8.082031 37.632812 -9.140625 38.75 -11.140625 C 39.875 -13.148438 40.4375 -15.539062 40.4375 -18.3125 C 40.4375 -21.09375 39.875 -23.484375 38.75 -25.484375 C 37.632812 -27.492188 36.28125 -28.523438 34.6875 -28.578125 L 22.5625 -28.578125 Z M 30.53125 -53.984375 L 22.5625 -53.984375 L 22.5625 -36.546875 L 30.53125 -36.546875 C 32.007812 -36.546875 33.203125 -37.367188 34.109375 -39.015625 C 35.023438 -40.671875 35.484375 -42.800781 35.484375 -45.40625 C 35.484375 -47.9375 35.039062 -50 34.15625 -51.59375 C 33.269531 -53.1875 32.0625 -53.984375 30.53125 -53.984375 Z M 30.53125 -53.984375 "/></g></g></g><g fill="#0f6fdc" fill-opacity="1"><g transform="translate(322.254869, 90.254037)"><g><path d="M 54.78125 -43.28125 C 54.78125 -39.675781 53.847656 -36.398438 51.984375 -33.453125 C 50.128906 -30.503906 47.726562 -28.265625 44.78125 -26.734375 L 57.34375 0 L 40.4375 0 L 28.765625 -24.6875 L 22.484375 -24.6875 L 22.484375 0 L 6.1875 0 L 6.1875 -61.953125 L 36.375 -61.953125 C 39.789062 -61.953125 42.882812 -61.109375 45.65625 -59.421875 C 48.4375 -57.742188 50.648438 -55.503906 52.296875 -52.703125 C 53.953125 -49.898438 54.78125 -46.757812 54.78125 -43.28125 Z M 30.625 -53.984375 L 22.484375 -53.984375 L 22.484375 -32.65625 L 30.625 -32.65625 C 32.332031 -32.65625 33.773438 -33.703125 34.953125 -35.796875 C 36.140625 -37.890625 36.734375 -40.382812 36.734375 -43.28125 C 36.734375 -46.226562 36.140625 -48.75 34.953125 -50.84375 C 33.773438 -52.9375 32.332031 -53.984375 30.625 -53.984375 Z M 30.625 -53.984375 "/></g></g></g><g fill="#0f6fdc" fill-opacity="1"><g transform="translate(381.808414, 90.254037)"><g><path d="M 21.6875 0 L 5.3125 0 L 5.3125 -61.953125 L 21.6875 -61.953125 Z M 21.6875 0 "/></g></g></g><g fill="#0f6fdc" fill-opacity="1"><g transform="translate(408.797754, 90.254037)"><g><path d="M 6.1875 -61.953125 L 29.46875 -61.953125 C 33.894531 -61.953125 37.96875 -61.179688 41.6875 -59.640625 C 45.40625 -58.109375 48.617188 -55.972656 51.328125 -53.234375 C 54.046875 -50.492188 56.15625 -47.25 57.65625 -43.5 C 59.164062 -39.75 59.921875 -35.660156 59.921875 -31.234375 C 59.921875 -26.753906 59.148438 -22.609375 57.609375 -18.796875 C 56.078125 -14.992188 53.9375 -11.691406 51.1875 -8.890625 C 48.445312 -6.085938 45.234375 -3.90625 41.546875 -2.34375 C 37.859375 -0.78125 33.832031 0 29.46875 0 L 6.1875 0 Z M 22.5625 -7.96875 L 29.375 -7.96875 C 31.738281 -7.96875 33.863281 -8.984375 35.75 -11.015625 C 37.644531 -13.054688 39.132812 -15.816406 40.21875 -19.296875 C 41.3125 -22.773438 41.859375 -26.664062 41.859375 -30.96875 C 41.859375 -35.34375 41.3125 -39.253906 40.21875 -42.703125 C 39.132812 -46.148438 37.644531 -48.890625 35.75 -50.921875 C 33.863281 -52.960938 31.738281 -53.984375 29.375 -53.984375 L 22.5625 -53.984375 Z M 22.5625 -7.96875 "/></g></g></g><g fill="#0f6fdc" fill-opacity="1"><g transform="translate(473.129736, 90.254037)"><g><path d="M 45.84375 -26.734375 L 36.46875 -26.734375 L 36.46875 -34.875 L 62.21875 -34.875 L 62.21875 0 L 52.390625 0 L 50.4375 -2.921875 C 48.4375 -1.503906 46.285156 -0.414062 43.984375 0.34375 C 41.679688 1.113281 39.320312 1.5 36.90625 1.5 C 32.414062 1.5 28.191406 0.660156 24.234375 -1.015625 C 20.285156 -2.703125 16.835938 -5.035156 13.890625 -8.015625 C 10.941406 -10.992188 8.625 -14.457031 6.9375 -18.40625 C 5.257812 -22.363281 4.421875 -26.582031 4.421875 -31.0625 C 4.421875 -35.601562 5.257812 -39.820312 6.9375 -43.71875 C 8.625 -47.613281 10.972656 -51.050781 13.984375 -54.03125 C 16.992188 -57.007812 20.472656 -59.320312 24.421875 -60.96875 C 28.378906 -62.625 32.660156 -63.453125 37.265625 -63.453125 C 41.628906 -63.453125 45.84375 -62.6875 49.90625 -61.15625 C 53.976562 -59.625 57.140625 -57.617188 59.390625 -55.140625 L 53.28125 -48.40625 C 49.5625 -52.59375 45.101562 -54.6875 39.90625 -54.6875 C 36.375 -54.6875 33.304688 -53.710938 30.703125 -51.765625 C 28.109375 -49.828125 26.085938 -47.101562 24.640625 -43.59375 C 23.203125 -40.082031 22.484375 -35.9375 22.484375 -31.15625 C 22.484375 -26.375 23.203125 -22.195312 24.640625 -18.625 C 26.085938 -15.0625 28.109375 -12.273438 30.703125 -10.265625 C 33.304688 -8.253906 36.285156 -7.25 39.640625 -7.25 C 40.648438 -7.25 41.6875 -7.484375 42.75 -7.953125 C 43.8125 -8.429688 44.84375 -9.144531 45.84375 -10.09375 Z M 45.84375 -26.734375 "/></g></g></g><g fill="#0f6fdc" fill-opacity="1"><g transform="translate(541.532243, 90.254037)"><g><path d="M 22.5625 -27 L 22.5625 -7.96875 L 49.390625 -7.96875 L 49.390625 0 L 6.1875 0 L 6.1875 -61.953125 L 47.609375 -61.953125 L 47.609375 -53.984375 L 22.5625 -53.984375 L 22.5625 -34.953125 L 36.109375 -34.953125 L 36.109375 -27 Z M 22.5625 -27 "/></g></g></g></g></g></g></g></g></g></svg>